# xmcd CD database generated by RipIT
#
# Track frame offsets:
# 150
# 23601
# 46725
# 64002
# 91919
# 114293
# 131465
# 150053
# 198121
#
# Disc length: 4440 seconds
#
# Revision: 1
# Processed by: cddbd v1.5.2PL0 Copyright (c) Steve Scherf et al.
# Submitted via: RipIT 3.6.0 www.suwald.com/ripit/ripit.html on 2008-04-25 at 23:49
#
DISCID=58115609
DTITLE=Dzem - Cegla
DYEAR=1985
DGENRE=Blues
TTITLE0=Czerwony jak cegla
TTITLE1=Whisky
TTITLE2=Nieudany skok
TTITLE3=Ballada o dziwnym malarzu
TTITLE4=Jesiony
TTITLE5=Powial boczny wiatr
TTITLE6=Kim jestem - jestem sobie
TTITLE7=Oh, slodka
TTITLE8=Data
EXTD=
EXTT0=
EXTT1=
EXTT2=
EXTT3=
EXTT4=
EXTT5=
EXTT6=
EXTT7=
EXTT8=
PLAYORDER=
